<svg viewBox="0 0 47 47" xmlns="http://www.w3.org/2000/svg" fill-rule="evenodd" clip-rule="evenodd" stroke-linejoin="round" stroke-miterlimit="2"><g fill="#589f46" fill-rule="nonzero"><path d="M17.9 37.74H9.12a2.27 2.27 0 01-2.25-2.28v-2.5a2.66 2.66 0 001.34-.03v2.53c0 .51.4.93.91.93h8.6c.37 0 .67-.3.67-.68 0-.38-.3-.68-.67-.68H9.55v-2.98l.01-.02c.88-1.1.77-2.7-.21-3.66a2.74 2.74 0 00.92-4.49 2.72 2.72 0 00.75-4.65l-1.47-1.2V4.71h2.96l.02.06c.23.71.87 1.19 1.6 1.19h5.18c.74 0 1.39-.48 1.61-1.2l.02-.05h2.66v9.4c0 .38.3.69.67.69.37 0 .67-.3.67-.68V4.29a.92.92 0 00-.91-.93h-3.27c-.48 0-.9.31-1.04.77l-.08.24a.35.35 0 01-.33.24h-5.17a.35.35 0 01-.33-.24l-.07-.24a1.1 1.1 0 00-1.05-.77H9.12c-.5 0-.91.42-.91.93v12.64c-.4-.3-.86-.48-1.34-.53V9.5c0-.38-.3-.68-.67-.68-.37 0-.67.3-.67.67a2.65 2.65 0 00-3.45.63 2.72 2.72 0 00.4 3.82l3.05 2.51v.17a2.72 2.72 0 00-.8 4.44c-.43.16-.82.44-1.13.82-.88 1.1-.77 2.7.22 3.67a2.72 2.72 0 00-.75 4.65l2.46 2.01v3.25c0 2 1.61 3.64 3.6 3.64h8.77c.37 0 .67-.3.67-.68 0-.37-.3-.67-.67-.67zM3.32 12.88a1.36 1.36 0 01.7-2.4c.36-.04.71.06 1 .3l.5.42v3.5l-2.2-1.82zm2.25 5.37a1.33 1.33 0 011.88-.2l2.72 2.23c.28.23.45.55.49.92.04.36-.07.71-.3 1-.46.58-1.3.67-1.88.2l-2.72-2.24a1.36 1.36 0 01-.2-1.91zm-.93 4.49a1.33 1.33 0 011.86-.23l1.13.94.04.03 1.58 1.3c.57.47.66 1.32.2 1.9-.47.59-1.32.68-1.9.2l-2.71-2.23a1.37 1.37 0 01-.2-1.91zm-1.21 5.49c-.04-.36.07-.72.3-1A1.34 1.34 0 015.56 27l1.14.94.04.03 1.58 1.3c.57.47.66 1.32.2 1.9a1.33 1.33 0 01-1.9.2l-2.71-2.23a1.35 1.35 0 01-.5-.91z"/><path d="M6.2 7.28c.37 0 .67-.3.67-.67V4.29A2.27 2.27 0 019.12 2h14.9a2.27 2.27 0 012.26 2.29V16.8c0 .38.3.68.67.68.37 0 .67-.3.67-.68V4.3c0-2.01-1.61-3.64-3.6-3.64H9.13a3.62 3.62 0 00-3.6 3.64V6.6c0 .37.3.67.68.67zM42.91 45.54l-4.57-5.45a.66.66 0 00-.94-.07.68.68 0 00-.08.95l4.57 5.45a.66.66 0 00.95.07.68.68 0 00.07-.95zM26.51 43.65a.67.67 0 00-.42-.26 5.78 5.78 0 01-4.69-4.54l-.24-1.22a5.85 5.85 0 01.63-4.03l3.31-5.89c.43-.76.37-1.7-.17-2.4l-3.1-4.03a3.16 3.16 0 01.1-3.98l.17-.2a.35.35 0 01.52 0l2.96 3.18c.25.27.68.28.95.02a.68.68 0 00.02-.95l-2.96-3.19a1.68 1.68 0 00-2.5.05l-.16.2a4.54 4.54 0 00-.16 5.7l3.1 4.03c.2.26.23.61.07.9l-3.32 5.89a7.22 7.22 0 00-.78 4.97l.25 1.22c.57 2.8 2.77 5 5.52 5.56l1.29 1.7a.67.67 0 00.94.13c.29-.22.35-.65.12-.95l-1.45-1.9zM34.76 35.83a.97.97 0 01-.23-.63v-3.49c0-2.44-.9-4.77-2.56-6.55l-3.46-3.71a.66.66 0 00-.94-.03.69.69 0 00-.03.96l3.45 3.7a8.22 8.22 0 012.2 5.63v3.5c0 .54.2 1.08.55 1.5l1.73 2.05a.66.66 0 00.94.08.68.68 0 00.08-.96l-1.73-2.06z"/><path d="M16.73 8.04a3.14 3.14 0 00-3.12 3.15c0 1.74 1.4 3.16 3.12 3.16.52 0 1.02-.14 1.45-.37l1.03 1.04a.67.67 0 00.95 0 .68.68 0 000-.96l-.95-.96a3.17 3.17 0 00-2.48-5.06zm-1.78 3.15c0-.99.8-1.8 1.78-1.8.97 0 1.77.81 1.77 1.8 0 1-.8 1.8-1.77 1.8-.98 0-1.78-.8-1.78-1.8zM18.45 31.18h-5.23a.2.2 0 01-.2-.2v-2.9c0-.11.09-.2.2-.2h6.72c.37 0 .67-.3.67-.68 0-.37-.3-.68-.67-.68h-6.72c-.85 0-1.54.7-1.54 1.56v2.9c0 .86.69 1.56 1.54 1.56h5.23c.37 0 .67-.3.67-.68 0-.38-.3-.68-.67-.68z"/></g></svg>