<svg viewBox="0 0 47 47" xmlns="http://www.w3.org/2000/svg" fill-rule="evenodd" clip-rule="evenodd" stroke-linejoin="round" stroke-miterlimit="2"><g fill="#326e9a" fill-rule="nonzero"><path d="M39.15 5.57h-13.5a.62.62 0 00-.61.61c0 .34.27.62.62.62h13.49c1.02 0 1.85.83 1.85 1.85v21.53h-2.96v-18.9c0-1.02-.84-1.85-1.86-1.85H6.13c-1.03 0-1.86.83-1.86 1.85v18.9H1.3V8.65c0-1.02.83-1.85 1.86-1.85h20.02a.62.62 0 100-1.23H3.16c-1.7 0-3.1 1.38-3.1 3.08v24.88c0 1.7 1.4 3.08 3.1 3.08h13.61l-.62 4.73h-2.2a.62.62 0 100 1.23h14.4a.62.62 0 100-1.23h-2.2l-.62-4.73h6.56a.62.62 0 100-1.24H3.16a1.85 1.85 0 01-1.86-1.84v-2.11H41v2.1c0 1.03-.83 1.85-1.85 1.85h-4.58a.62.62 0 100 1.23h4.58c1.7 0 3.1-1.37 3.1-3.07V8.65c0-1.7-1.4-3.08-3.1-3.08zM24.9 41.34h-7.52l.63-4.74h6.26l.63 4.74zM5.5 11.28c0-.34.27-.62.62-.62h30.05c.34 0 .62.28.62.62v3.03H5.5v-3.03zm0 4.26H36.8v14.64h-3.01v-2.74a.62.62 0 00-.62-.61H22.63a.62.62 0 00-.61.61v2.74h-1.73v-2.74a.62.62 0 00-.62-.61H9.14a.62.62 0 00-.62.61v2.74H5.5V15.54zm27.04 14.64h-9.3v-2.12h9.3v2.12zm-13.5 0h-9.3v-2.12h9.3v2.12z"/><path d="M7.87 11.5a.95.95 0 00-.95.94.95.95 0 001.9 0 .95.95 0 00-.95-.95zM10.92 11.5a.95.95 0 00-.95.94.95.95 0 001.9 0 .95.95 0 00-.95-.95zM13.97 11.5a.95.95 0 00-.95.94.95.95 0 001.9 0 .95.95 0 00-.95-.95zM9.14 25.32h4.5a.62.62 0 100-1.23H9.75v-5.4h22.8v5.4H16.12a.62.62 0 100 1.23h17.05c.34 0 .62-.27.62-.61v-6.63a.62.62 0 00-.62-.62H9.14a.62.62 0 00-.62.62v6.63c0 .34.27.61.62.61z"/></g></svg>