<?xml version="1.0" encoding="UTF-8" standalone="no"?>
<svg
   xmlns:dc="http://purl.org/dc/elements/1.1/"
   xmlns:cc="http://creativecommons.org/ns#"
   xmlns:rdf="http://www.w3.org/1999/02/22-rdf-syntax-ns#"
   xmlns:svg="http://www.w3.org/2000/svg"
   xmlns="http://www.w3.org/2000/svg"
   xmlns:sodipodi="http://sodipodi.sourceforge.net/DTD/sodipodi-0.dtd"
   xmlns:inkscape="http://www.inkscape.org/namespaces/inkscape"
   width="522.56781"
   height="534.63171"
   viewBox="0 0 418.05425 427.70537"
   version="1.1"
   id="svg2"
   inkscape:version="0.47pre4 r22446"
   sodipodi:docname="Labyrinthe.svg">
  <metadata
     id="metadata54">
    <rdf:RDF>
      <cc:Work
         rdf:about="">
        <dc:format>image/svg+xml</dc:format>
        <dc:type
           rdf:resource="http://purl.org/dc/dcmitype/StillImage" />
        <dc:title />
      </cc:Work>
    </rdf:RDF>
  </metadata>
  <defs
     id="defs52">
    <inkscape:perspective
       sodipodi:type="inkscape:persp3d"
       inkscape:vp_x="0 : 286.25 : 1"
       inkscape:vp_y="0 : 1000 : 0"
       inkscape:vp_z="572.5 : 286.25 : 1"
       inkscape:persp3d-origin="286.25 : 190.83333 : 1"
       id="perspective56" />
  </defs>
  <sodipodi:namedview
     pagecolor="#ffffff"
     bordercolor="#666666"
     borderopacity="1"
     objecttolerance="10"
     gridtolerance="10"
     guidetolerance="10"
     inkscape:pageopacity="0"
     inkscape:pageshadow="2"
     inkscape:window-width="1280"
     inkscape:window-height="779"
     id="namedview50"
     showgrid="false"
     inkscape:zoom="0.85938865"
     inkscape:cx="220.23808"
     inkscape:cy="280.04715"
     inkscape:window-x="0"
     inkscape:window-y="0"
     inkscape:window-maximized="1"
     inkscape:current-layer="svg2" />
  <path
     d="m 185.96,0.09 c 0.67,4.01 1.23,8.04 1.75,12.07 -14.52,1.13 -28.62,4.85 -42.42,9.36 3.57,11.64 7.54,23.16 11.44,34.69 11.66,-3.86 23.85,-6.11 36.11,-6.85 -13.12,2.51 -26.57,4.13 -39.01,9.25 -10.12,3.42 -19.59,8.39 -29.1,13.21 9.51,16.41 19.27,32.69 28.25,49.4 -8.74,5.93 -17.44,12.1 -24.69,19.85 -4.07,4.06 -7.48,8.73 -11.65,12.68 8.57,-13.66 20.81,-24.88 34.73,-32.94 -9.4,-16.88 -19.36,-33.44 -28.77,-50.3 11.26,-4.06 21.57,-10.41 32.99,-14.14 -4.19,-11.99 -8.52,-23.95 -11.92,-36.19 14.04,-3.81 28.19,-7.25 42.67,-8.98 -0.16,-3.7 -0.28,-7.41 -0.38,-11.11 z"
     id="path6"
     style="fill:#000000" />
  <path
     d="m 229.2,12.16 c 0.43,-4.08 1.09,-8.13 1.86,-12.16 0.03,3.69 -0.01,7.38 -0.12,11.07 29.05,3.47 57.23,13 82.81,27.12 -6.27,11.11 -11.95,22.69 -20.01,32.64 2.53,-5.52 5.75,-10.7 8.97,-15.84 -11.61,-6.6 -24.16,-11.17 -36.34,-16.54 13.3,3.19 25.3,9.78 37.73,15.21 2.44,-5.03 4.97,-10.01 7.51,-14.99 C 286.26,24.49 258.12,15.2 229.2,12.16 z"
     id="path8"
     style="fill:#000000" />
  <path
     d="m 68.56,64.33 c 21.86,-18.58 46.51,-34.75 74.23,-42.94 -9.16,4.86 -19.06,8.13 -28.24,12.94 -15.65,8.12 -29.99,18.55 -43.33,30.02 3.51,4.36 7.07,8.69 10.58,13.06 10.92,-7.78 20.88,-17.11 33.16,-22.8 -10.44,8.06 -21.18,15.7 -31.66,23.7 12.22,14.28 25.5,27.66 37.19,42.38 C 108.15,110.26 98.6,97.05 87.61,85.31 81.75,78.46 74.99,72.33 70,64.78 55.02,79.69 40.75,95.68 30.38,114.21 26.84,120.06 24.04,126.4 19.87,131.85 30.91,106.16 48.51,83.64 68.56,64.33 z"
     id="path10"
     style="fill:#000000" />
  <path
     d="m 189.25,30.75 c 13.01,-2.54 26.24,-2.19 39.36,-0.98 -0.55,6.38 -1.14,12.76 -1.89,19.12 10.88,1.49 22.12,2.6 32.23,7.19 -10.76,-2.04 -21.41,-4.72 -32.32,-5.9 -1.38,12.16 -2.9,24.32 -3.92,36.51 9.57,1.23 19.18,2.9 28.21,6.4 -9.47,-1.45 -18.77,-3.86 -28.31,-4.92 -1.41,11.94 -2.57,23.9 -4.08,35.83 13.23,2.74 26.96,5.55 38.32,13.32 -12.5,-4.66 -24.75,-10.27 -38.12,-12.1 -0.8,5.93 -1.55,11.86 -2.21,17.81 10.27,1.7 20.36,4.78 29.54,9.73 9.12,5.36 16.82,12.79 23.69,20.76 9.87,-7.19 19.78,-14.36 29.29,-22.03 -4.79,-5.8 -10.08,-11.16 -14.72,-17.08 12.54,9.77 21.54,22.99 28.48,37.11 10.54,-5.07 21,-10.46 32.27,-13.76 -10.61,5.63 -21.86,9.94 -32.52,15.47 -3.91,-7.02 -8.09,-13.89 -12.33,-20.72 -4.82,3.68 -9.66,7.31 -14.56,10.88 16.28,20.65 20.84,48.47 16.92,74.04 5.98,1.46 11.98,2.82 18.01,4.13 -1.31,8.41 -4.41,16.42 -8.06,24.07 1.71,-7.82 4.88,-15.25 6.41,-23.13 -18.47,-4.7 -37.47,-7.27 -55.69,-12.91 12.97,1.82 25.65,5.18 38.45,7.93 0.98,-14.84 2.41,-30.21 -2.72,-44.49 -2.55,-10.56 -8.03,-20.07 -14.39,-28.76 -4.93,3.74 -9.89,7.44 -14.92,11.04 -6.78,-7.23 -13.58,-14.64 -21.99,-20.02 -9.45,-5.79 -20.21,-8.92 -30.99,-11.12 -2.15,18.47 -3.81,36.99 -6.07,55.44 4.81,1.52 9.17,4.08 13.79,6.06 5.5,-2.9 9.97,-7.47 15.56,-10.26 -4.65,4.4 -9.76,8.29 -14.94,12.05 1.71,5.36 4.11,11 2.4,16.7 -2.19,7.52 -9.27,12.53 -16.7,14.05 0.48,6.16 0.99,12.32 1.3,18.5 -1.11,-6.45 -1.79,-12.98 -2.42,-19.49 8.79,-1.85 18.04,-8.97 17.04,-18.89 0.03,-9.63 -9.36,-18.27 -19.1,-17.01 -8.8,0.5 -16.86,8.97 -15.9,18.02 -0.28,5.24 2.97,9.42 5.27,13.77 -4.1,4.58 -8.14,9.21 -12,14 4.4,2.57 8.84,5.1 13.43,7.32 -2.22,5.94 -4.37,11.91 -6.17,18 8.02,1.46 16.2,2.34 24.37,1.9 6.66,-1.05 12.93,-3.72 19.19,-6.13 -2.79,-5.98 -5.69,-11.91 -8.17,-18.02 6.51,11.56 13.83,22.72 19.61,34.69 -3.78,-5.01 -6.95,-10.43 -10.42,-15.64 -7.2,2.77 -14.59,5.01 -22.11,6.71 0.57,6.24 1.1,12.49 1.43,18.76 -1.13,-6.26 -1.88,-12.58 -2.72,-18.88 -7.68,-0.55 -15.34,-1.26 -22.94,-2.5 2.05,-6.12 4.1,-12.23 6.04,-18.38 -4.85,-2.28 -9.34,-5.23 -13.87,-8.07 4.43,-4.59 8.62,-9.4 12.82,-14.2 -2.22,-4.2 -4.16,-8.56 -5.84,-12.99 -6.34,-0.16 -12.67,-0.31 -18.99,-0.43 l -0.02,-0.84 c 6.36,-0.1 12.71,-0.21 19.07,-0.33 1.27,-4.6 3.13,-9.03 5.77,-13.02 -7.93,-9.05 -15.96,-18.02 -24.6,-26.4 -4.3,5.13 -8.4,10.43 -12.59,15.65 3.07,-6.11 7.09,-11.77 11.92,-16.62 -4.26,-5.03 -8.63,-9.98 -12.37,-15.42 8.41,-5.94 17.06,-11.73 26.8,-15.27 -2.15,-6.58 -4.69,-13.07 -5.95,-19.9 7.23,18.13 13.31,36.75 18.76,55.48 -5.13,-11.09 -8.32,-22.91 -12.59,-34.33 -9.11,3.43 -17.51,8.4 -24.75,14.93 11.42,14.25 24.38,27.17 36.54,40.77 4.1,-1.92 8.46,-3.22 12.57,-5.11 1.91,-6.29 1.66,-13.03 2.53,-19.5 2.59,-24.35 4.81,-48.75 7.92,-73.05 -3.76,0.01 -11.28,0.01 -15.04,0.01 -10.81,-0.32 -21.18,3.16 -31.69,5.1 -4.49,-12.52 -8.85,-25.2 -10.96,-38.37 4.02,12.42 7.47,25.03 11.87,37.34 14.84,-4.25 30.33,-5.93 45.74,-5.24 2.7,-24.64 4.7,-49.38 8.02,-73.95 -12.73,-1.69 -25.52,-1.07 -38.28,-0.43 z"
     id="path12"
     style="fill:#000000" />
  <path
     d="m 314.06,39.58 c 13.96,6.64 25.76,16.85 37.42,26.83 31.57,29.59 53.58,69.05 62.36,111.42 4.26,24.22 6.07,49.17 1.69,73.51 -5.81,32.34 -17.7,64.15 -37.61,90.5 -10.59,-6.81 -20.71,-14.29 -30.86,-21.73 -9.38,11.76 -19.61,22.92 -31.27,32.46 -12.33,10.05 -26.41,17.65 -40.88,24.12 -4.7,2.03 -9.59,3.68 -14.63,4.62 10.84,-4.83 22.09,-8.8 32.29,-15 -7.53,-17.52 -20.45,-32.12 -26.94,-50.15 9.01,16.76 20.02,32.37 28.22,49.57 20.63,-11.52 37.64,-28.46 52.48,-46.63 -5.46,-3.31 -10.73,-6.91 -15.81,-10.78 6.21,-9.42 12.2,-18.99 17.17,-29.13 -2.74,10.82 -9.47,19.94 -15.39,29.2 4.36,3.09 8.73,6.21 13.47,8.73 2.07,0.17 3,-2.12 4.17,-3.43 11.64,-18.14 20.49,-38.15 25.34,-59.19 -6.2,-1.35 -12.39,-2.76 -18.56,-4.22 3.89,-20.64 4.58,-42.11 -0.18,-62.67 -6.04,1.44 -12.08,3.02 -18.28,3.59 11.88,-3.62 24.1,-5.94 36.24,-8.5 -1.21,-11.96 -7.5,-22.47 -10.25,-34.03 6.17,-2.77 12.16,-5.97 18.51,-8.33 -5.55,3.49 -11.3,6.64 -17.21,9.47 4.05,11.17 8.42,22.25 10.87,33.93 -6.28,1.01 -12.49,2.37 -18.68,3.75 1.83,10.23 3.02,20.57 3.42,30.95 -0.19,10.47 -1.46,20.89 -2.25,31.32 5.52,1.13 11.02,2.33 16.52,3.57 1.8,-11.73 2.83,-23.56 4.53,-35.3 -0.3,16.54 -1.84,33.2 -6.66,49.09 -5.81,18.43 -14.35,36.02 -25.46,51.83 9.95,7.27 19.71,14.88 30.46,20.98 6.14,-9.64 11.8,-19.58 17.2,-29.64 20.32,-41.44 26.5,-89.57 17.05,-134.78 -5.92,1.36 -11.84,2.69 -17.77,4 5.41,25.69 5.94,52.52 0.25,78.2 -3.08,13.37 -6.45,27.03 -13.23,39.05 6.13,-18.1 12.85,-36.24 14.75,-55.41 2.66,-20.89 1.57,-42.26 -3.1,-62.78 6.03,-1.31 12.06,-2.65 18.11,-3.9 -5.71,-27.8 -18.14,-53.94 -34.31,-77.15 -15.31,10.54 -30.24,21.62 -45.67,32.01 6.3,9.09 12.94,18.33 15.97,29.13 -5.17,-9.73 -10.65,-19.29 -17.06,-28.27 -4.84,3.65 -9.52,7.68 -15.11,10.17 19.14,-16.02 40.6,-29.01 60.56,-43.97 C 360.18,72.96 337.3,55.33 314.06,39.58 z"
     id="path14"
     style="fill:#000000" />
  <path
     d="m 254.22,75.26 c 2.17,-6.83 4.02,-13.81 7.1,-20.31 -1.17,6.68 -3.53,13.07 -5.65,19.5 10.02,4.68 21.14,7.32 30.08,14.07 -10.58,-4.24 -20.94,-9.03 -31.53,-13.26 z"
     id="path16"
     style="fill:#000000" />
  <path
     d="m 164.25,74.12 c 9.47,-3.3 19.34,-5.28 29.33,-6.04 0.64,6.2 1.21,12.4 1.53,18.62 -1.08,-5.89 -1.86,-11.83 -2.76,-17.74 -9.48,1.11 -18.65,3.88 -28.1,5.16 z"
     id="path18"
     style="fill:#000000" />
  <path
     d="m 293.34,71.16 c 10.89,4.8 19.68,13.01 28.97,20.24 4.73,-5.12 9.09,-10.65 14.46,-15.15 -3.59,4.8 -7.41,9.42 -11.46,13.84 -9.39,9.71 -17.37,20.78 -27.56,29.71 7,-9.81 16.07,-17.87 23.31,-27.47 -8.48,-8.03 -18.62,-13.92 -27.72,-21.17 z"
     id="path20"
     style="fill:#000000" />
  <path
     d="m 274.41,102.66 c 7.48,5.56 15.66,10.34 22.15,17.13 -7.69,-4.23 -14.32,-10.1 -21.91,-14.49 -2.76,5.49 -5.54,10.96 -8.34,16.43 -7.8,-3.57 -15.85,-6.66 -23.27,-10.98 7.92,2.11 15.47,5.35 22.51,9.54 2.95,-5.88 5.91,-11.75 8.86,-17.63 z"
     id="path22"
     style="fill:#000000" />
  <path
     d="m 54.17,106.38 c 7.09,4.2 13.59,9.31 20.33,14.03 14.2,10.21 28.96,19.76 42.23,31.18 -15.97,-9.38 -29.95,-21.78 -45.54,-31.78 -6.33,10.21 -11.74,21 -18.31,31.05 3.92,-11.34 11.56,-20.79 16.7,-31.45 C 65,114.45 58.67,111.45 54.17,106.38 z"
     id="path24"
     style="fill:#000000" />
  <path
     d="m 18.38,132.35 c 5.89,2.86 11.92,5.53 17.41,9.15 -5.6,-1.81 -10.87,-4.44 -16.19,-6.91 -11.65,26.36 -18.28,54.95 -18.18,83.83 5.89,-0.1 11.78,-0.17 17.68,-0.33 1.22,-12.98 -0.15,-26.88 5.11,-39.13 -2.01,13.01 -3.83,26.06 -3.84,39.26 6.23,0.08 12.47,0.19 18.7,0.37 0.71,18.06 2.41,36.41 8.79,53.47 5.59,16.69 14.08,32.27 23.88,46.85 -5.69,4.01 -10.95,8.75 -17.35,11.65 4.86,-4.38 10.16,-8.22 15.35,-12.17 C 59.53,303.22 51.12,286.76 45.6,269.3 40.51,253.27 39.04,236.37 38.06,219.67 25.66,219.28 13.24,219.28 0.83,219.3 0.81,247.7 8.45,275.29 18.04,301.77 5.48,276.27 0.88,247.54 0,219.34 c 0.29,-18.21 1.99,-36.6 7.34,-54.09 3.05,-11.18 7.65,-21.83 11.04,-32.9 z"
     id="path26"
     style="fill:#000000" />
  <path
     d="m 146.84,148.42 c -8.61,9.86 -17.25,19.87 -23.21,31.62 5.77,2.72 11.49,5.57 17.19,8.45 -3.48,9.25 -6.79,18.78 -6.34,28.84 -0.78,10.09 2.08,19.84 4.69,29.45 -4.88,-8.08 -5.49,-17.9 -6.01,-27.07 0.15,-10.42 1.66,-21 6.24,-30.44 -11.01,-5.69 -22.27,-10.87 -33.67,-15.73 -2.77,7.67 -5.14,15.48 -7.91,23.16 0.84,-8.22 3.88,-15.94 6.81,-23.58 -11.44,-6.34 -24.07,-10.23 -35.46,-16.6 18.47,5.76 35.19,15.83 53.14,22.94 6.7,-11.37 13.57,-23.23 24.53,-31.04 z"
     id="path28"
     style="fill:#000000" />
  <path
     d="m 61.06,186.5 c 1.58,-9.6 4.54,-19.03 9.54,-27.42 -1.28,5.41 -3.66,10.45 -5.51,15.67 -7.35,23.94 -9,49.69 -4.1,74.29 6.21,-1.24 12.37,-2.76 18.59,-3.94 2.24,8.62 5.39,16.97 7.68,25.57 -4.21,-7.63 -6.19,-16.09 -8.57,-24.39 -5.68,1.4 -11.41,2.65 -17.09,4.07 2.19,11.92 7.33,22.91 11.87,34.05 3.43,8.75 9.43,16.11 13.85,24.34 -8.04,-9.04 -13.96,-19.75 -18.05,-31.09 -12.6,-27.98 -15.16,-60.09 -8.91,-90.01 -6.8,-1.29 -13.56,-2.79 -20.11,-5.05 7,0.94 13.89,2.51 20.81,3.91 z"
     id="path30"
     style="fill:#000000" />
  <path
     d="m 227.92,186.92 c 2.62,-6.57 5.37,-13.22 9.61,-18.93 -2.47,6.63 -5.37,13.22 -9.61,18.93 z"
     id="path32"
     style="fill:#000000" />
  <path
     d="m 238.04,170.69 c 13.87,7.09 22.2,21.16 26.94,35.49 6.25,-1.41 12.53,-2.74 18.88,-3.6 -11.98,4.17 -24.64,5.72 -36.89,8.9 0.49,10.28 -1.46,20.75 -6.44,29.81 20.83,14.13 40.61,29.73 61.2,44.19 -4.99,6.04 -10.05,12.04 -15.29,17.86 3.48,4.47 7.02,8.9 10.53,13.35 27.65,-24.24 43.76,-60.57 43.78,-97.3 -6.32,-0.02 -12.61,-0.07 -18.91,-0.09 0.11,-8.17 -1.23,-16.21 -1.93,-24.32 2.12,7.59 2.49,15.49 2.89,23.32 6.51,0.01 13.01,0.02 19.52,0.03 -0.62,26.68 -7.95,53.52 -23.3,75.54 -6.13,8.42 -12.92,16.39 -20.42,23.62 4.18,4.54 8.18,9.25 11.87,14.21 -9.77,-8.47 -18.08,-18.52 -25.85,-28.81 5.28,-5.35 10.11,-11.14 14.8,-17 -4.69,-3.44 -9.34,-6.92 -13.99,-10.41 -8.33,11.3 -19.32,20.37 -31.44,27.36 -10.95,5.94 -23.25,8.8 -35.46,10.83 1.4,12.65 2.89,25.31 3.55,38.03 -1.14,-6.41 -1.9,-12.89 -2.74,-19.34 -15.32,1.35 -30.79,-0.32 -45.5,-4.81 -2.21,6.08 -3.99,12.37 -7,18.14 1.68,-6.19 3.5,-12.33 5.58,-18.39 -7.46,-2.79 -15,-5.73 -21.41,-10.56 6.57,2.76 12.92,6.08 19.72,8.3 15.56,5.68 32.34,7.24 48.8,6.37 -0.71,-6.23 -1.36,-12.47 -1.97,-18.71 12.89,-2.4 26.1,-5.17 37.47,-12.01 11.09,-6.91 21.76,-15.2 29.09,-26.17 -13.69,-10.27 -27.5,-20.4 -41.61,-30.1 -5.98,-4.38 -12.52,-8.22 -17.51,-13.78 4.87,3.15 9.64,6.47 14.39,9.81 5.43,-8.99 6.32,-19.68 6.4,-29.97 6.03,-1.4 12.05,-2.84 18.07,-4.29 -3.16,-7.54 -6.42,-15.15 -11.55,-21.59 -4,-5.37 -9.54,-9.25 -14.27,-13.91 z"
     id="path34"
     style="fill:#000000" />
  <path
     d="m 75.68,219.28 c 0.61,-9.51 1.46,-19.01 3.53,-28.32 -0.05,9.14 -1.39,18.21 -1.81,27.34 12.52,0.04 25.04,-0.05 37.56,0.29 0.25,26.07 11.24,51.97 30.86,69.33 8.48,-9.19 16.3,-18.99 24.99,-27.97 l 0.68,-0.63 c -7.04,11.03 -16.76,19.88 -25.09,29.88 7.33,5.15 14.34,10.97 22.56,14.67 3.95,1.82 8.08,3.25 11.95,5.25 -13.63,-2.23 -24.75,-11.07 -35.53,-19.05 -8.44,8.64 -16.59,17.59 -24,27.14 6.71,6.25 14.18,11.57 22.12,16.15 -3.13,5.41 -6.19,10.85 -9.24,16.31 17.9,9.94 37.61,17.1 58.13,18.89 0.91,-6.2 1.79,-12.4 2.91,-18.56 -0.25,6.43 -0.97,12.82 -1.65,19.23 20.27,1.56 40.68,-0.32 60.2,-6.07 -1.83,-12.77 -7.6,-24.5 -10.26,-37.06 5.42,12.01 8.94,24.75 12.11,37.5 -30.91,9.63 -64.87,9.94 -95.54,-0.77 -9.17,-3.52 -18.16,-7.46 -27.05,-11.63 -6.09,11.04 -12.39,21.99 -19.24,32.59 7.66,-17.51 19,-33.09 27.59,-50.14 -7.88,-4.24 -15.03,-9.71 -21.35,-16.01 -16.1,19.01 -33.54,36.85 -49.32,56.13 43.57,39.33 104.51,58.5 162.77,51.59 35.3,-5.04 69.94,-17.8 98.55,-39.38 17.54,-11.61 31.43,-27.69 44.62,-43.85 -1.8,3.55 -4.07,6.83 -6.32,10.11 -30.39,36.62 -73.71,62.05 -120.32,71.48 -25.36,4.58 -51.54,5.52 -77.01,1.2 -47.24,-8.81 -91.94,-33.19 -123.02,-70.1 -12.27,-15.07 -23.52,-31.49 -30.75,-49.61 13.58,24.61 28.57,49.17 50.28,67.51 16.1,-18.71 32.93,-36.77 49.18,-55.36 -6.22,-6.68 -12.73,-13.28 -17.53,-21.1 7.01,6.05 11.96,14.06 18.89,20.21 7.64,-9.5 15.85,-18.52 24.2,-27.41 -10.14,-10.79 -19.72,-22.78 -24.38,-37.03 -4.07,-10.29 -5.3,-21.38 -5.8,-32.35 -5.95,-0.17 -11.89,-0.3 -17.84,-0.4 -0.05,7.86 1.25,15.61 1.89,23.42 -2.11,-7.59 -2.48,-15.49 -2.89,-23.3 -6.54,-0.04 -13.08,-0.08 -19.63,-0.12 z"
     id="path36"
     style="fill:#000000" />
  <path
     d="m 156.92,194.53 c 6,2.87 12.14,5.51 17.88,8.89 -5.89,-1.79 -11.5,-4.37 -17.14,-6.79 -2.41,7.62 -3.41,15.57 -5.37,23.3 -0.36,-8.75 2.28,-17.11 4.63,-25.4 z"
     id="path38"
     style="fill:#000000" />
  <path
     d="m 138.2,249.17 c 11.94,-5.78 24.29,-10.75 36.58,-15.76 -5.21,3.38 -10.81,6.04 -16.5,8.47 3.21,6.66 7.82,12.43 12.53,18.07 -6.26,-4.35 -10.36,-10.87 -13.86,-17.49 -6.17,2.44 -12.24,5.27 -18.75,6.71 z"
     id="path40"
     style="fill:#000000" />
  <path
     d="m 23.76,257.07 c 3.5,13.26 7.66,26.34 12.82,39.05 -6.37,2.88 -12.54,6.39 -19.35,8.17 5.63,-3.35 11.59,-6.11 17.44,-9.07 -4.36,-12.47 -9.8,-24.83 -10.91,-38.15 z"
     id="path42"
     style="fill:#000000" />
  <path
     d="m 86.21,273.27 c 6.08,-3.6 12.5,-6.63 19.03,-9.33 4.07,7.27 8.46,14.39 12.09,21.91 -5.24,-6.14 -8.76,-13.44 -12.78,-20.37 -5.98,2.88 -11.97,5.87 -18.34,7.79 z"
     id="path44"
     style="fill:#000000" />
  <path
     d="m 179.83,306.75 c 1.56,-5.7 3.04,-11.48 5.72,-16.77 -1.44,5.73 -3.06,11.47 -5.72,16.77 z"
     id="path46"
     style="fill:#000000" />
  <path
     d="m 300.51,384.25 c 13.1,-6.87 23.72,-17.47 36.46,-24.87 -33.41,31.65 -79.39,48.44 -125.1,49.4 -7.6,0.04 -15.24,-0.45 -22.74,-1.69 12.77,0.68 25.54,1.15 38.3,-0.1 -0.48,-5.91 -1.11,-11.8 -1.82,-17.67 -23.15,1.73 -46.83,-0.37 -68.95,-7.59 -4.15,10.9 -6.58,22.49 -11.82,32.95 2.98,-11.68 7.14,-23 10.95,-34.42 22.72,6.88 46.86,10.09 70.53,7.35 0.66,6.38 1.43,12.76 2.39,19.11 25.07,-2.7 49.59,-10.58 71.8,-22.47 z"
     id="path48"
     style="fill:#000000" />
</svg>
