<?xml version="1.0" encoding="UTF-8" standalone="no"?>
<!-- Created with Inkscape (http://www.inkscape.org/) -->

<svg
   xmlns:dc="http://purl.org/dc/elements/1.1/"
   xmlns:cc="http://creativecommons.org/ns#"
   xmlns:rdf="http://www.w3.org/1999/02/22-rdf-syntax-ns#"
   xmlns:svg="http://www.w3.org/2000/svg"
   xmlns="http://www.w3.org/2000/svg"
   xmlns:sodipodi="http://sodipodi.sourceforge.net/DTD/sodipodi-0.dtd"
   xmlns:inkscape="http://www.inkscape.org/namespaces/inkscape"
   width="81.399582"
   height="79.314491"
   id="svg2913"
   version="1.1"
   inkscape:version="0.47pre4 r22446"
   sodipodi:docname="Nouveau document 7">
  <defs
     id="defs2915">
    <inkscape:perspective
       sodipodi:type="inkscape:persp3d"
       inkscape:vp_x="0 : 526.18109 : 1"
       inkscape:vp_y="0 : 1000 : 0"
       inkscape:vp_z="744.09448 : 526.18109 : 1"
       inkscape:persp3d-origin="372.04724 : 350.78739 : 1"
       id="perspective2921" />
    <inkscape:perspective
       id="perspective2900"
       inkscape:persp3d-origin="0.5 : 0.33333333 : 1"
       inkscape:vp_z="1 : 0.5 : 1"
       inkscape:vp_y="0 : 1000 : 0"
       inkscape:vp_x="0 : 0.5 : 1"
       sodipodi:type="inkscape:persp3d" />
  </defs>
  <sodipodi:namedview
     id="base"
     pagecolor="#ffffff"
     bordercolor="#666666"
     borderopacity="1.0"
     inkscape:pageopacity="0.0"
     inkscape:pageshadow="2"
     inkscape:zoom="3.959798"
     inkscape:cx="-23.336798"
     inkscape:cy="30.4467"
     inkscape:document-units="px"
     inkscape:current-layer="layer1"
     showgrid="false"
     inkscape:window-width="1280"
     inkscape:window-height="779"
     inkscape:window-x="0"
     inkscape:window-y="0"
     inkscape:window-maximized="1" />
  <metadata
     id="metadata2918">
    <rdf:RDF>
      <cc:Work
         rdf:about="">
        <dc:format>image/svg+xml</dc:format>
        <dc:type
           rdf:resource="http://purl.org/dc/dcmitype/StillImage" />
        <dc:title></dc:title>
      </cc:Work>
    </rdf:RDF>
  </metadata>
  <g
     inkscape:label="Calque 1"
     inkscape:groupmode="layer"
     id="layer1"
     transform="translate(-396.25285,-435.7842)">
    <path
       style="fill:#fee624;fill-opacity:1"
       d="m 475.02484,472.91682 c -5.27984,2.2983 -10.97215,3.35125 -16.5598,4.60787 5.08943,3.18957 11.23744,3.47941 16.9929,4.32844 4.18739,2.49827 -2.00285,3.07449 -4.07375,2.83801 -4.29521,0.29569 -8.63923,0.27895 -12.89123,-0.46258 -0.0403,4.39706 6.87317,3.12211 9.37458,5.91657 3.28817,0.65038 7.21008,7.32378 1.36087,5.22483 -4.3953,-0.83776 -8.77768,-2.19616 -12.36554,-4.94725 -4.14299,-0.60537 1.53675,3.85532 2.62277,5.13441 2.51965,2.43395 5.15226,5.15861 5.81509,8.73734 -5.42957,-0.28632 -8.40665,-5.69315 -12.80571,-8.14712 -1.46511,-1.51034 -4.62694,-1.14653 -2.21341,1.17464 1.75248,3.8547 5.41991,7.32046 4.92494,11.85183 -3.41118,0.844 -6.67987,-5.50901 -8.91921,-8.34114 -0.37748,-3.06196 -5.39145,-5.1636 -3.43203,-0.48155 0.3727,4.09059 3.22153,9.69239 0.61426,12.96253 -3.94939,-1.31438 -3.7235,-7.1338 -5.94961,-10.2652 -0.12636,-1.90588 -1.85625,-8.13784 -2.77597,-3.22162 -1.39749,5.1155 -1.06533,11.01755 -4.6993,15.27186 -4.45984,-1.02646 0.58586,-7.02314 -1.60409,-10.0288 0.19902,-1.78204 1.25164,-9.54734 -1.70081,-5.5674 -2.63193,4.00402 -3.7724,9.92412 -8.93559,11.47715 -2.95836,-1.52189 1.96909,-5.24707 1.94264,-7.97377 1.43315,-3.75014 2.80751,-7.58675 5.11593,-10.90807 -5.53393,-0.83977 -7.14331,6.11861 -11.35576,8.31651 -1.37362,2.04713 -8.0164,3.68461 -4.65915,-0.28088 2.87119,-4.20993 6.10997,-8.16713 9.6467,-11.83497 -3.05292,-3.24097 -7.40262,2.24511 -10.87553,2.90172 -2.44171,1.19455 -7.60296,2.66316 -8.85191,1.78606 4.25389,-2.85528 8.03326,-6.33569 12.12381,-9.40813 2.2885,0.0677 7.76546,-3.40959 2.52015,-3.59077 -5.71221,-0.0868 -11.64392,3.32517 -17.15823,0.50463 5.08606,-2.32586 10.0436,-5.45894 15.718,-5.93745 5.11524,-1.39434 -2.4745,-3.26122 -4.39529,-3.27953 -3.49404,-0.50183 -7.30213,-0.87046 -10.08903,-3.27655 4.20777,-2.81868 9.86379,-1.61408 14.55109,-1.55205 2.72783,1.25908 6.78529,-0.94562 2.79883,-3.18752 -3.60726,-2.86133 -8.98562,-3.32062 -11.53561,-7.50055 1.79,-3.37512 6.43454,1.66418 9.57618,0.82599 2.40898,0.22207 6.49556,3.59465 7.82486,1.90146 -1.31142,-4.53671 -6.76945,-5.98086 -9.13233,-9.90613 -1.83375,-1.30707 -2.053,-6.20396 0.91317,-3.10706 4.17691,3.1116 9.18586,5.1551 12.62664,9.15089 3.70478,2.20672 0.1733,-4.83701 -0.52118,-6.44142 -1.40759,-2.96457 -3.0062,-5.97794 -3.2083,-9.31923 4.14786,-0.28591 4.57281,6.17594 8.1206,7.81 1.12543,1.75724 4.51898,9.33945 4.83627,3.54022 0.25748,-4.67552 -2.34624,-9.95873 0.25786,-14.24975 3.74349,-1.03314 2.88378,5.36363 4.17864,7.81995 0.70958,3.00497 1.38143,6.03317 2.48436,8.92462 3.0389,-3.67385 1.05447,-8.92102 3.16885,-13.01877 0.38385,-2.11483 3.73492,-6.54371 3.17585,-1.77405 0.24792,4.69359 0.54277,9.39836 -0.11742,14.05527 -0.0436,5.29729 3.84231,-0.53585 4.34764,-2.63974 1.74255,-3.5845 3.62449,-8.15437 7.83943,-9.24251 2.1134,2.27287 -3.10197,6.00139 -2.47008,9.2449 -0.50113,2.96624 -4.09258,7.61361 -2.98713,9.4775 5.18329,-2.52723 7.79568,-8.98839 13.77871,-10.05477 3.30445,0.87686 -2.89876,4.38935 -3.40929,6.36362 -1.8383,3.22763 -6.78895,7.42284 -7.90956,8.9107 6.39106,0.0419 11.48273,-5.31066 17.93393,-4.88046 -0.87168,4.51481 -6.79611,5.31674 -9.81659,8.20369 -2.53892,0.5059 -7.49164,4.10838 -2.15515,4.66853 5.04631,0.58252 9.94459,-2.33216 14.97541,-1.02809 0.37236,1.5362 -1.9469,1.0569 -2.58737,1.92314 z"
       id="path2890" />
  </g>
</svg>
